<svg width="215" height="130" viewBox="0 0 215 130" fill="none" xmlns="http://www.w3.org/2000/svg">
<g filter="url(#filter0_d_11_11)">
<mask id="path-1-inside-1_11_11" fill="white">
<path fill-rule="evenodd" clip-rule="evenodd" d="M215 20C215 8.9543 206.046 0 195 0H20C8.95431 0 0 8.95431 0 20V28C0 39.0457 8.9543 48 20 48H195C206.046 48 215 39.0457 215 28V20ZM20 82C8.95431 82 0 90.9543 0 102V110C0 121.046 8.9543 130 20 130H195C206.046 130 215 121.046 215 110V102C215 90.9543 206.046 82 195 82H20Z"/>
</mask>
<path fill-rule="evenodd" clip-rule="evenodd" d="M215 20C215 8.9543 206.046 0 195 0H20C8.95431 0 0 8.95431 0 20V28C0 39.0457 8.9543 48 20 48H195C206.046 48 215 39.0457 215 28V20ZM20 82C8.95431 82 0 90.9543 0 102V110C0 121.046 8.9543 130 20 130H195C206.046 130 215 121.046 215 110V102C215 90.9543 206.046 82 195 82H20Z" fill="#D9D9D9"/>
<path d="M20 1H195V-1H20V1ZM1 28V20H-1V28H1ZM195 47H20V49H195V47ZM214 20V28H216V20H214ZM1 102C1 91.5066 9.50659 83 20 83V81C8.40202 81 -1 90.402 -1 102H1ZM1 110V102H-1V110H1ZM20 129C9.50659 129 1 120.493 1 110H-1C-1 121.598 8.40202 131 20 131V129ZM195 129H20V131H195V129ZM214 110C214 120.493 205.493 129 195 129V131C206.598 131 216 121.598 216 110H214ZM214 102V110H216V102H214ZM195 83C205.493 83 214 91.5066 214 102H216C216 90.402 206.598 81 195 81V83ZM20 83H195V81H20V83ZM195 49C206.598 49 216 39.598 216 28H214C214 38.4934 205.493 47 195 47V49ZM-1 28C-1 39.598 8.40202 49 20 49V47C9.50659 47 1 38.4934 1 28H-1ZM195 1C205.493 1 214 9.50659 214 20H216C216 8.40202 206.598 -1 195 -1V1ZM20 -1C8.40202 -1 -1 8.40202 -1 20H1C1 9.50659 9.50659 1 20 1V-1Z" fill="black" mask="url(#path-1-inside-1_11_11)"/>
</g>
<defs>
<filter id="filter0_d_11_11" x="-4" y="0" width="223" height="138" filterUnits="userSpaceOnUse" color-interpolation-filters="sRGB">
<feFlood flood-opacity="0" result="BackgroundImageFix"/>
<feColorMatrix in="SourceAlpha" type="matrix" values="0 0 0 0 0 0 0 0 0 0 0 0 0 0 0 0 0 0 127 0" result="hardAlpha"/>
<feOffset dy="4"/>
<feGaussianBlur stdDeviation="2"/>
<feComposite in2="hardAlpha" operator="out"/>
<feColorMatrix type="matrix" values="0 0 0 0 0 0 0 0 0 0 0 0 0 0 0 0 0 0 0.25 0"/>
<feBlend mode="normal" in2="BackgroundImageFix" result="effect1_dropShadow_11_11"/>
<feBlend mode="normal" in="SourceGraphic" in2="effect1_dropShadow_11_11" result="shape"/>
</filter>
</defs>
</svg>
